<svg xmlns="http://www.w3.org/2000/svg" viewBox="0 0 200 200" role="img">
  <defs>
    <radialGradient id="glow-valkyrie" cx="50%" cy="50%" r="50%">
      <stop offset="0%" stop-color="#ffff80" stop-opacity="0.32"/>
      <stop offset="65%" stop-color="#ffff80" stop-opacity="0.08"/>
      <stop offset="100%" stop-color="#ffff80" stop-opacity="0"/>
    </radialGradient>
  </defs>
  <rect x="3" y="3" width="194" height="194" rx="26" fill="#0a0d13" stroke="#ffff80" stroke-opacity="0.25" stroke-width="2"/>
  <circle cx="100" cy="100" r="88" fill="url(#glow-valkyrie)"/>
  <g fill="#060810" stroke="#ffff80" stroke-opacity="0.9" stroke-width="2.5" stroke-linejoin="round" stroke-linecap="round">
    <!-- left wing with feather notches -->
    <path d="M86 104 Q52 68 26 72 Q42 86 34 92 Q50 100 44 108 Q62 114 58 122 Q76 124 86 116 Z"/>
    <!-- right wing -->
    <path d="M114 104 Q148 68 174 72 Q158 86 166 92 Q150 100 156 108 Q138 114 142 122 Q124 124 114 116 Z"/>
    <!-- winged helm -->
    <path d="M86 52 L78 38 L92 46 Z"/>
    <path d="M114 52 L122 38 L108 46 Z"/>
    <!-- head -->
    <circle cx="100" cy="58" r="12"/>
    <!-- armored torso and skirt -->
    <path d="M100 72 Q84 82 82 110 L88 162 Q100 170 112 162 L118 110 Q116 82 100 72 Z"/>
    <!-- spear held at her side -->
    <path d="M138 44 L126 168" fill="none" stroke-width="3.5"/>
    <path d="M138 44 L132 22 L146 36 Z"/>
    <!-- shield boss -->
    <circle cx="70" cy="120" r="11"/>
  </g>
  <circle cx="100" cy="58" r="2.5" fill="#ffff80"/>
</svg>
