<svg xmlns="http://www.w3.org/2000/svg" viewBox="0 0 24 24" width="24" height="24" color="#000"><polygon points="12,7 15.5,8.5 17,12 15.5,15.5 12,17 8.5,15.5 7,12 8.5,8.5" fill="none" stroke="currentColor" stroke-width="1.8" stroke-linejoin="miter" stroke-linecap="square" stroke-miterlimit="10"/><polygon points="13.35,4.60 10.65,4.60 12.00,0.80" fill="currentColor" stroke="none"/><polygon points="17.98,7.51 16.49,6.02 18.79,5.21" fill="currentColor" stroke="none"/><polygon points="19.40,13.35 19.40,10.65 23.20,12.00" fill="currentColor" stroke="none"/><polygon points="16.49,17.98 17.98,16.49 18.79,18.79" fill="currentColor" stroke="none"/><polygon points="10.65,19.40 13.35,19.40 12.00,23.20" fill="currentColor" stroke="none"/><polygon points="6.02,16.49 7.51,17.98 5.21,18.79" fill="currentColor" stroke="none"/><polygon points="4.60,10.65 4.60,13.35 0.80,12.00" fill="currentColor" stroke="none"/><polygon points="7.51,6.02 6.02,7.51 5.21,5.21" fill="currentColor" stroke="none"/></svg>
